<svg xmlns="http://www.w3.org/2000/svg" version="1.1" xmlns:xlink="http://www.w3.org/1999/xlink" xmlns:svgjs="http://svgjs.dev/svgjs" width="100%" height="100%" viewBox="0 0 1000 600"><rect width="1000" height="600" x="0" y="0" fill="#484747"/><g><circle r="166.66666666666666" cx="366.3624827067057" cy="388.5846341947466" fill="#d9265c" transform="matrix(0.6259522875378866,0,0,0.6259522875378866,0,56.76456821499917)"/><path d="M302.4084627522821 330.7234743911873L302.4084627522821 313.58463737287786L358.21521777249177 313.58463737287786Q368.487262947669 313.58463737287786 377.80246007913115 316.25818337737604Q387.0895146210722 318.9317293818743 395.1101526345668 323.772254779492Q403.1307906480614 328.6409227666308 409.6598714169412 335.42328684119997Q416.188952185821 342.177508326248 420.7761942777495 350.50771482447396Q425.391578959199 358.80977873317886 427.86812683705 368.35011658080924Q430.31653212537987 377.8904544284397 430.31653212537987 388.190642193138L430.31653212537987 388.190642193138Q430.31653212537987 398.6878280844835 427.86812683705 408.284451111156Q425.391578959199 417.8810741378285 420.7761942777495 426.29570840461747Q416.188952185821 434.6822000818855 409.6598714169412 441.5771345145387Q403.1307906480614 448.443926357671 395.1101526345668 453.34073693433083Q387.0895146210722 458.2375475109907 377.80246007913115 460.9110935154888Q368.487262947669 463.58463951998704 358.21521777249177 463.58463951998704L358.21521777249177 463.58463951998704L302.4084627522821 463.58463951998704L302.4084627522821 446.5583728597617L316.6486130499251 446.5583728597617L316.6486130499251 330.7234743911873L302.4084627522821 330.7234743911873ZM359.3972065323752 330.7234743911873L336.03885722991726 330.7234743911873L336.03885722991726 446.5583728597617L359.3972065323752 446.5583728597617Q369.78182206563656 446.5583728597617 378.9281636599725 442.0274159468753Q388.0745052543084 437.46831644446786 394.91315450791956 429.5883913785784Q401.7236611720097 421.73660890221004 405.6917662944754 411.0987100632593Q409.6598714169412 400.4608112243086 409.6598714169412 388.190642193138L409.6598714169412 388.190642193138Q409.6598714169412 376.1174712886146 405.6917662944754 365.64842798679007Q401.7236611720097 355.1512420954445 394.91315450791956 347.3838873876392Q388.0745052543084 339.61653267983394 378.9281636599725 335.1700035355106Q369.78182206563656 330.7234743911873 359.3972065323752 330.7234743911873L359.3972065323752 330.7234743911873Z " fill="#ffffff" transform="matrix(0.6259522875378866,0,0,0.6259522875378866,0,56.76456821499917)"/><path d="M616.3624956613187 330.4016390065615L616.3624956613187 313.58462978380106L671.1213286477453 313.58462978380106Q681.2004885267397 313.58462978380106 690.3407677594715 316.20797276600507Q699.4534328555485 318.8313157482091 707.3234618021606 323.5809472528311Q715.1934907487725 328.35819289410784 721.5999704526813 335.01319982790955Q728.0064501565901 341.6405926250565 732.507554431319 349.8143770748711Q737.0362728427027 357.96054738803093 739.4663168683232 367.32173971400096Q741.868746757289 376.68293203997104 741.868746757289 386.7897060556202L741.868746757289 386.7897060556202Q741.868746757289 397.0897790278527 739.4663168683232 406.50619962713233Q737.0362728427027 415.922620226412 732.507554431319 424.1792470861909Q728.0064501565901 432.40825980931504 721.5999704526813 439.1737232897359Q715.1934907487725 445.9115726335019 707.3234618021606 450.7164324114335Q699.4534328555485 455.521292189365 690.3407677594715 458.144635171569Q681.2004885267397 460.767978153773 671.1213286477453 460.767978153773L671.1213286477453 460.767978153773L616.3624956613187 460.767978153773L616.3624956613187 444.06142547763176L630.3352488086368 444.06142547763176L630.3352488086368 330.4016390065615L616.3624956613187 330.4016390065615ZM672.2811223872461 330.4016390065615L649.3613889637795 330.4016390065615L649.3613889637795 444.06142547763176L672.2811223872461 444.06142547763176Q682.4707388128595 444.06142547763176 691.4453332256626 439.6155494762123Q700.4199276384659 435.14205933813815 707.1301628455772 427.4101010748Q713.8127839160336 419.7057569481167 717.7063771843575 409.26761329261024Q721.5999704526813 398.8294696371038 721.5999704526813 386.7897060556202L721.5999704526813 386.7897060556202Q721.5999704526813 374.94324143072 717.7063771843575 364.6707825951422Q713.8127839160336 354.3707096229096 707.1301628455772 346.74920790619063Q700.4199276384659 339.12770618947167 691.4453332256626 334.76467259801655Q682.4707388128595 330.4016390065615 672.2811223872461 330.4016390065615L672.2811223872461 330.4016390065615ZM817.6143236013478 460.767978153773L817.6143236013478 451.4343999644577Q811.8705831771538 456.79154247548485 804.9394348768043 460.1880812840227Q797.9806724398 463.5846200925605 789.1717628469255 463.5846200925605L789.1717628469255 463.5846200925605Q781.7711742234447 463.5846200925605 775.6132217494289 461.265032613559Q769.4552692754132 458.9178309979028 764.9817791373391 454.8861670463051Q760.5082889992649 450.85450309470735 758.0506308369895 445.5249747203351Q755.5653585380594 440.1954463459627 755.5653585380594 434.1755645552209L755.5653585380594 434.1755645552209Q755.5653585380594 427.76908485131213 757.4707339672392 422.79854025345196Q759.3484952597641 417.85560979224647 762.5241209750637 414.21054375381567Q765.6721325537086 410.5654777153849 769.8970954618898 408.1078195531095Q774.1220583700709 405.6225472541794 778.733619191419 404.1313838748213Q783.3451800127671 402.61260635880853 788.1500397906987 401.9774812157486Q792.9548995686303 401.3423560726887 797.3179331600852 401.3423560726887L797.3179331600852 401.3423560726887Q804.3043097337444 401.3423560726887 809.0539412383663 401.78418225916516Q813.8311868796432 402.2260084456416 817.6971660113121 402.9992042719754L817.6971660113121 402.9992042719754L817.8076225579313 394.7425774121965Q817.8076225579313 389.4130490378242 816.2336167686088 385.49184163284554Q814.6872251159413 381.54302009121216 811.8705831771538 378.97490538231773Q809.0539412383663 376.40679067342325 805.1327338333878 375.1365403873034Q801.1839122917543 373.89390423783834 796.3514383771679 373.89390423783834L796.3514383771679 373.89390423783834Q791.7674916924747 373.89390423783834 787.5977570576031 374.5014152442435Q783.4280224227314 375.1365403873034 779.7829563843006 376.15826344353025Q776.1378903458698 377.1799864997571 773.1003353138441 378.50546505918646Q770.0351661451637 379.80332948196104 767.9088776227456 381.26687872466437L767.9088776227456 381.26687872466437L761.9718382419682 368.7300606833947Q765.5616760070894 366.41047320439327 769.8418671885802 364.42225536524916Q774.1220583700709 362.4340375261051 778.8164616013834 361.02571655671136Q783.5384789693505 359.6173955873176 788.4261811572464 358.78897148767425Q793.3414974817971 357.96054738803093 798.0911289864191 357.96054738803093L798.0911289864191 357.96054738803093Q806.8171961693292 357.96054738803093 813.8311868796432 360.0592217737941Q820.8175634533021 362.1302820229025 825.6500373678884 366.4933156143576Q830.5101254191296 370.88396334246744 833.1334684013336 377.6218126862335Q835.7568113835376 384.3596620299996 835.7568113835376 393.77608262927924L835.7568113835376 393.77608262927924L835.6739689735732 444.06142547763176L846.830080182104 444.06142547763176L846.830080182104 460.767978153773L817.6143236013478 460.767978153773ZM793.1481985252136 448.4520732057416L793.1481985252136 448.4520732057416Q796.7380362903349 448.4520732057416 800.3278740554562 447.56842083278866Q803.9177118205774 446.6847684598357 807.1209516725318 445.1936050804777Q810.3241915244862 443.67482756446486 813.0303769166545 441.68660972532075Q815.7641764454776 439.69839188617664 817.6143236013478 437.5721033637587L817.6143236013478 437.5721033637587L817.6971660113121 414.8456688968756L796.7380362903349 414.8456688968756Q791.4913503259269 414.8456688968756 787.1559308711265 416.0054626363763Q782.8481255529811 417.165256375877 779.7001139743363 419.4020014449141Q776.5521023956915 421.6387465139512 774.7847976497856 424.9524429125247Q773.0451070405345 428.2385251744434 773.0451070405345 432.5187163559341L773.0451070405345 432.5187163559341Q773.0451070405345 436.4951520342223 774.5086562832378 439.4498646562837Q775.9445913892863 442.4321914149998 778.6231626447999 444.42040925414386Q781.3017339003135 446.408627093288 784.9744140753991 447.43035014951477Q788.6747083871394 448.4520732057416 793.1481985252136 448.4520732057416ZM867.2093130333309 376.8762309965545L867.2093130333309 360.197292457068L899.2417115528744 360.197292457068L899.2417115528744 371.9333005353491L899.4350105094579 371.9333005353491Q902.7487069080314 369.1166585965616 906.3937729464621 366.65900043428627Q910.038838984893 364.17372813535616 914.0152746631812 362.323580979486Q917.9917103414693 360.4734338236158 922.2995156596149 359.4240966307342Q926.6349351144152 358.34714530119777 931.2741100724181 358.34714530119777L931.2741100724181 358.34714530119777Q942.1540799144011 358.34714530119777 950.024108861013 362.3788092527955Q957.894137807625 366.41047320439327 962.146714852461 374.94324143072L962.146714852461 374.94324143072Q965.8470091642014 371.6571591688013 969.9339013891087 368.5919900001208Q973.9931794773611 365.5268208314403 978.4114413421257 363.29007576240326Q982.8297032068904 361.05333069336615 987.6897912581315 359.700237997282Q992.5498793093726 358.34714530119777 997.7965652737806 358.34714530119777L997.7965652737806 358.34714530119777Q1005.9427355869404 358.34714530119777 1012.4320577008135 360.5838903702349Q1018.9489939513413 362.820635439272 1023.5053264993799 367.37696798731054Q1028.0892731840731 371.9333005353491 1030.464088936384 379.08536192893683Q1032.838904688695 386.2098091858698 1032.838904688695 395.929985288352L1032.838904688695 395.929985288352L1032.838904688695 444.06142547763176L1046.8116578360134 444.06142547763176L1046.8116578360134 460.767978153773L999.8123972495795 460.767978153773L999.8123972495795 444.06142547763176L1014.006063490136 444.06142547763176L1014.006063490136 398.1391162207343Q1014.006063490136 386.5964070990367 1008.1794806559775 380.6317535816044Q1002.3528978218192 374.6671000641722 991.3900855698719 374.6671000641722L991.3900855698719 374.6671000641722Q984.8731493193441 374.6671000641722 978.0800717022685 377.7598833695074Q971.2869940851929 380.8802808114974 966.4269060339518 385.62991231611943L966.4269060339518 385.62991231611943L966.4269060339518 444.06142547763176L980.3168167713056 444.06142547763176L980.3168167713056 460.767978153773L933.4280127314908 460.767978153773L933.4280127314908 444.06142547763176L947.5940648353924 444.06142547763176L947.5940648353924 398.1391162207343Q947.5940648353924 386.5964070990367 941.7122537279245 380.6317535816044Q935.8580567571114 374.6671000641722 924.8676303685094 374.6671000641722L924.8676303685094 374.6671000641722Q918.5716072112198 374.6671000641722 912.1651275073111 377.6770409595431Q905.7586478034023 380.686981854914 900.0149073792084 385.13285785633343L900.0149073792084 385.13285785633343L900.0149073792084 444.06142547763176L914.2085736197647 444.06142547763176L914.2085736197647 460.767978153773L867.2093130333309 460.767978153773L867.2093130333309 444.06142547763176L881.182066180649 444.06142547763176L881.182066180649 376.8762309965545L867.2093130333309 376.8762309965545ZM1095.3573100751148 327.7782960243575L1095.3573100751148 360.197292457068L1118.939782778296 360.197292457068L1118.939782778296 374.8603990207556L1095.1640111185313 374.8603990207556L1094.8602556153287 432.90531426910104Q1094.8602556153287 438.81473951322374 1096.213348311413 442.5150338249641Q1097.5940551441518 446.21532813670456 1100.6039960395228 447.62364910609824Q1103.6139369348937 449.0319700754919 1107.3970736565984 449.0319700754919L1107.3970736565984 449.0319700754919Q1111.456351744851 449.0319700754919 1114.576749186841 448.286388385813Q1117.6695324921761 447.56842083278866 1121.3698268039166 445.8287302235376L1121.3698268039166 445.8287302235376L1125.539561438788 457.95133621498553Q1120.8727723441305 460.3813802406061 1115.7365429263416 461.78970120999986Q1110.6003135085527 463.19802217939355 1103.6139369348937 463.19802217939355L1103.6139369348937 463.19802217939355Q1097.0141582744016 463.19802217939355 1092.0988419498508 461.5964022534164Q1087.2111397619549 459.9947823274392 1083.842215090072 456.2116456057345Q1080.5009045548438 452.4285088840297 1078.8440563555569 446.0496433167758Q1077.1872081562701 439.69839188617664 1077.1872081562701 430.1991288769327L1077.1872081562701 430.1991288769327L1077.4909636594728 374.8603990207556L1061.474764399701 374.8603990207556L1061.474764399701 360.197292457068L1077.6842626160562 360.197292457068L1077.6842626160562 336.1177652941007L1095.3573100751148 327.7782960243575ZM1229.7000849006145 412.80222278442193L1157.295818591784 412.80222278442193Q1157.295818591784 417.0824139659127 1157.9309437348438 420.6170234577244Q1158.566068877904 424.1792470861909 1159.7258626174046 427.38248693814523L1159.7258626174046 427.38248693814523Q1163.3157003825258 437.0750489039727 1171.2133434657926 441.99036522852333Q1179.1386006857142 446.8780674164192 1189.1349181547441 446.8780674164192L1189.1349181547441 446.8780674164192Q1197.0049471013563 446.8780674164192 1204.4331498614918 444.69655062069165Q1211.8613526216272 442.5150338249641 1220.0075229347872 437.8482447303065L1220.0075229347872 437.8482447303065L1227.2976550116487 450.19176381499267Q1217.384179952583 456.9848414320683 1207.3878624835531 460.270923693987Q1197.3915450145232 463.5846200925605 1186.6220317191592 463.5846200925605L1186.6220317191592 463.5846200925605Q1176.4048011568912 463.5846200925605 1167.7339622472905 460.1880812840227Q1159.0355092010352 456.79154247548485 1152.7671001804001 450.08130726837356Q1146.52630529642 443.3986861979171 1142.9640816679537 433.4023687288871Q1139.429472176142 423.3784371232023 1139.429472176142 410.0960373922536L1139.429472176142 410.0960373922536Q1139.429472176142 399.3265240968898 1142.439413071513 389.7444186776815Q1145.4493539668838 380.18992739512794 1151.4140074843162 373.06548013819497Q1157.3786610017482 365.9134187446072 1166.2151847312775 361.7436841097356Q1175.0517084608068 357.573949474864 1186.8153306757429 357.573949474864L1186.8153306757429 357.573949474864Q1198.1647408408571 357.573949474864 1205.7862425575759 361.02571655671136Q1213.407744274295 364.44986950190395 1218.2126040522264 370.13838165278844Q1223.0174638301578 375.8268938036729 1225.5027361290881 383.08941174387974Q1227.9603942913634 390.37954382074145 1228.9268890742808 397.94581726415083L1228.9268890742808 397.94581726415083Q1229.4239435340667 401.64611157589127 1229.5620142173407 405.42924829759596Q1229.7000849006145 409.21238501930065 1229.7000849006145 412.80222278442193L1229.7000849006145 412.80222278442193ZM1185.5450803896229 372.70649636168287L1185.5450803896229 372.70649636168287Q1179.2214430956785 372.70649636168287 1174.527039864366 374.5014152442435Q1169.8050224963988 376.29633412680414 1166.5189402344802 379.66525879868715Q1163.2052438359067 383.0065693339154 1161.2170259967627 387.86665738515654Q1159.2288081576185 392.7267454363976 1158.2623133747013 398.74662722713947L1158.2623133747013 398.74662722713947L1210.397803378924 398.74662722713947Q1210.011205465757 393.1133433495645 1208.6028844963635 388.33609770828775Q1207.1945635269697 383.5864662036658 1204.2674650415631 380.1070849851636Q1201.3679806928112 376.6000896300067 1196.8116481447728 374.6671000641722Q1192.2277014600795 372.70649636168287 1185.5450803896229 372.70649636168287ZM1246.517094123375 376.8762309965545L1246.517094123375 360.197292457068L1278.356193686335 360.197292457068L1278.356193686335 376.8762309965545L1273.6894045916774 376.8762309965545L1291.2519955041168 441.05148458226085L1315.331522667084 360.197292457068L1330.4916836905577 360.197292457068L1353.4942595239886 440.8581856256774L1371.830046262762 376.8762309965545L1366.0034634286035 376.8762309965545L1366.0034634286035 360.197292457068L1397.8701771282185 360.197292457068L1397.8701771282185 376.8762309965545L1389.2269523552727 376.8762309965545L1361.6404298371485 462.31436980644065L1344.961491297662 462.31436980644065L1322.12460028416 382.04007455099816L1299.4257799539314 462.31436980644065L1282.5259283212067 462.31436980644065L1255.1603188963209 376.8762309965545L1246.517094123375 376.8762309965545Z " fill="#ffffff" transform="matrix(0.6259522875378866,0,0,0.6259522875378866,0,56.76456821499917)"/></g></svg>